# xmcd
#
# Track frame offsets:
# 150
# 15598
# 30383
#
# Disc length: 669 seconds
#
# Revision: 1
# Processed by: cddbd v1.5.2PL0 Copyright (c) Steve Scherf et al.
# Submitted via: CedeCatalogueitor 2.6.0.6 http://personales.ya.com/cdcatalogueitor
#
DISCID=14029b03
DTITLE=Black Affair - Tack! Attack! Cd Single
DYEAR=1900
DGENRE=
TTITLE0=Tak! Attack!
TTITLE1=Blush
TTITLE2=Tak! Attack! (suicidedogz Rmx)
EXTD=
EXTT0=
EXTT1=
EXTT2=
PLAYORDER=
